<svg width="20" height="20" viewBox="0 0 20 20" fill="none" xmlns="http://www.w3.org/2000/svg">
<g style="mix-blend-mode:overlay" clip-path="url(#clip0)">
<path d="M20 6.33162C19.9634 6.11162 19.9334 5.93995 19.7 5.79745C10.1592 0.138282 10.2942 -0.283385 9.67503 0.0907821C2.4442 4.58578 0.431697 5.58828 0.14253 5.93828C-0.11997 6.20745 2.98284e-05 6.61995 2.98284e-05 12.8533C-0.0174702 13.5624 6.45253 17.4049 9.5992 19.8566C9.8767 20.0541 10.2259 20.0224 10.435 19.8324C19.7884 13.2024 20.0159 13.4691 20 12.8533C20 12.8533 19.99 6.24745 20 6.33162ZM18.75 11.7408L15.52 9.77495L18.75 7.52745V11.7408ZM14.3525 9.06412L10.625 6.79578V1.73745L18.23 6.36662L14.3525 9.06412ZM10 12.0916L6.77003 9.84412L10 7.87828L13.23 9.84412L10 12.0916ZM9.37503 1.73662V6.79828C7.92586 7.69745 6.70086 8.44828 5.66586 9.07662L1.77003 6.36662L9.37503 1.73662ZM4.4942 9.78495C2.93253 10.7241 1.91253 11.3208 1.25003 11.7183V7.52745L4.4942 9.78495ZM5.60253 10.5549L9.37503 13.1791V18.1783L1.77003 12.8874L5.60253 10.5549ZM10.625 18.1791V13.1799L14.3975 10.5558L18.23 12.8883L10.625 18.1791Z" fill="#DDEDD9"/>
</g>
<defs>
<clipPath id="clip0">
<rect width="20" height="20" fill="white"/>
</clipPath>
</defs>
</svg>
