<svg width="70" height="70" viewBox="0 0 70 70" fill="none" xmlns="http://www.w3.org/2000/svg">
<path d="M34.9956 0.728638C15.6713 0.728638 0 16.4611 0 35.8686C0 51.3911 10.0275 64.5599 23.94 69.2105C25.69 69.5343 26.3288 68.4493 26.3288 67.5174C26.3288 66.6818 26.2981 64.4724 26.2806 61.5411C16.5462 63.663 14.49 56.8293 14.49 56.8293C12.9019 52.7693 10.605 51.6886 10.605 51.6886C7.42438 49.5099 10.8412 49.5536 10.8412 49.5536C14.3544 49.803 16.2006 53.1761 16.2006 53.1761C19.3244 58.5443 24.395 56.9955 26.39 56.0943C26.705 53.8236 27.6106 52.2749 28.6125 51.3955C20.8425 50.5074 12.67 47.493 12.67 34.0311C12.67 30.1943 14.035 27.0574 16.275 24.5986C15.9119 23.7105 14.7131 20.1361 16.6163 15.3018C16.6163 15.3018 19.5563 14.3568 26.2413 18.9024C29.0325 18.1236 32.025 17.7343 35.0044 17.7211C37.975 17.7386 40.9719 18.1236 43.7675 18.9068C50.4481 14.3611 53.3837 15.3061 53.3837 15.3061C55.2912 20.1449 54.0925 23.7149 53.7337 24.603C55.9781 27.0618 57.33 30.1986 57.33 34.0355C57.33 47.5324 49.1487 50.503 41.3525 51.3736C42.6081 52.4586 43.7281 54.6024 43.7281 57.8793C43.7281 62.578 43.6844 66.3668 43.6844 67.5174C43.6844 68.458 44.3144 69.5518 46.0906 69.2061C59.9813 64.5511 70 51.3868 70 35.8686C70 16.4611 54.3288 0.728638 34.9956 0.728638Z" fill="#DDEDD9"/>
</svg>
