<svg width="70" height="70" viewBox="0 0 70 70" fill="none" xmlns="http://www.w3.org/2000/svg">
<g clip-path="url(#clip0)">
<path d="M60.9056 18.0677C61.4717 18.0677 61.931 17.6089 61.931 17.0423V12.7672C61.931 12.6203 61.9091 12.49 61.8376 12.3324C61.7847 12.2181 61.7099 12.1103 61.6122 12.0173C59.2111 9.73423 51.4533 2.35835 49.1264 0.14575C48.8311 -0.134631 48.4759 -0.137301 48.4898 -0.134097C48.4231 -0.138904 50.115 -0.135699 12.2134 -0.136767C10.0141 -0.136767 8.20312 1.65019 8.20312 3.87401V65.8531C8.20312 68.0524 9.99062 69.8633 12.2134 69.8633H57.9202C60.1318 69.8633 61.9305 68.0641 61.9305 65.8531V20.8704C61.9305 20.3043 61.4717 19.845 60.9051 19.845C60.339 19.845 59.8797 20.3043 59.8797 20.8704V48.9048H20.6478C20.0811 48.9048 19.6224 49.364 19.6224 49.9301C19.6224 50.4968 20.0811 50.9555 20.6478 50.9555H59.8802V65.8531C59.8802 66.9335 59.0012 67.8126 57.9202 67.8126H12.2134C11.133 67.8126 10.2539 66.9335 10.2539 65.8531V50.9555H16.8196C17.3857 50.9555 17.845 50.4968 17.845 49.9301C17.845 49.364 17.3857 48.9048 16.8196 48.9048H10.2539V8.68161H47.3945V9.77536C47.3945 11.9869 49.1937 13.7861 51.4047 13.7861H59.8802V17.0423C59.8802 17.6089 60.339 18.0677 60.9056 18.0677ZM10.2539 6.63136V3.87401C10.2539 2.79361 11.133 1.91455 12.2134 1.91455H47.3945V6.63136H10.2539ZM51.4047 11.7354C50.3243 11.7354 49.4453 10.8563 49.4453 9.77536V3.27854L58.3389 11.7354H51.4047Z" fill="#DDEDD9"/>
<path d="M30.484 64.0608C32.4024 64.0608 33.9581 62.5355 33.9581 60.6535V55.6563C33.9581 55.2061 33.5928 54.8408 33.1431 54.8408C32.6929 54.8408 32.3276 55.2061 32.3276 55.6563V60.6535C32.3276 62.7561 29.3241 63.2341 28.7206 61.1513C28.6223 60.8127 28.3104 60.5649 27.9403 60.5649C27.3966 60.5649 27.0079 61.0946 27.1627 61.6137C27.5916 63.0514 28.9214 64.0608 30.484 64.0608Z" fill="#DDEDD9"/>
<path d="M39.3845 62.4977C38.4915 62.4977 37.6151 62.1666 36.8386 61.7724C36.3147 61.5054 35.6936 61.8889 35.6936 62.4758C35.6936 62.7722 35.857 63.0307 36.099 63.1658C39.1431 64.855 43.0054 64.0582 43.0054 61.335C43.0054 59.3174 41.0278 58.9029 39.3305 58.5958C38.2064 58.3924 37.4469 58.2882 37.4432 57.548C37.4405 56.9253 37.9815 56.2706 39.3439 56.2706C40.255 56.2706 41.0534 56.5632 41.7573 56.9435C42.2727 57.2239 42.9146 56.8521 42.9146 56.2535C42.9146 55.9539 42.7469 55.6932 42.4997 55.5613C38.8851 53.6339 35.817 55.2345 35.8127 57.6158C35.8068 61.201 41.3664 59.6554 41.3813 61.3874C41.3893 62.3236 40.0254 62.4977 39.3845 62.4977Z" fill="#DDEDD9"/>
</g>
<defs>
<clipPath id="clip0">
<rect width="70" height="70" fill="white"/>
</clipPath>
</defs>
</svg>
