<svg width="80" height="80" viewBox="0 0 80 80" fill="none" xmlns="http://www.w3.org/2000/svg">
<path d="M80 40.3808C80 34.6154 72.7362 30.4272 62.776 27.9703C66.1864 19.1458 66.7805 11.5079 62.3756 8.24195C61.1693 7.34751 59.6808 6.89456 57.9576 6.89456C52.8125 6.89456 45.7096 11.0221 38.3966 17.8838C31.0032 10.5576 23.8329 6.13306 18.7207 6.13306C17.1567 6.13306 15.7995 6.53842 14.6818 7.33767C11.219 9.82239 10.7102 15.4434 13.213 23.5934C13.7037 25.1919 14.3224 26.8593 15.0166 28.5612C6.21179 31.0721 0 35.0519 0 40.3808C0 45.6309 6.03126 49.5729 14.6293 52.0888C10.981 61.2088 10.2195 69.1651 14.7425 72.518C15.9504 73.4124 17.4373 73.8637 19.1605 73.8637C24.3023 73.8637 31.3938 69.7444 38.6986 62.8959C45.6965 69.5737 52.4088 73.5519 57.2634 73.5519C58.8274 73.5519 60.1846 73.1466 61.3023 72.3473C65.5775 69.28 65.0146 61.7881 61.7257 53.0309C72.2176 50.6266 80 46.3497 80 40.3808ZM57.9559 10.1785C58.9587 10.1785 59.7891 10.4148 60.4177 10.8826C63.0238 12.8126 62.735 18.9981 59.5101 27.2532C55.0675 26.3686 50.2277 25.8024 45.3354 25.5644C43.796 23.6771 42.2418 21.9062 40.6876 20.2503C47.7955 13.6167 54.1583 10.1785 57.9559 10.1785ZM26.1847 48.3125C26.9528 49.3809 27.7307 50.4214 28.5152 51.4439C25.1114 51.068 21.9801 50.5281 19.1573 49.8798C20.1567 47.7168 21.3187 45.4569 22.6792 43.11C23.7886 44.8464 24.9489 46.5877 26.1847 48.3125ZM19.5708 30.8013C22.1442 30.222 24.9653 29.7411 28.0146 29.3899C27.4944 30.0595 26.9741 30.7291 26.4621 31.4201C25.159 33.1794 23.9084 34.9945 22.7137 36.8342C21.5501 34.791 20.5014 32.774 19.5708 30.8013ZM24.5764 39.9738C25.9385 37.8173 27.4435 35.6083 29.0994 33.3747C30.2482 31.8238 31.402 30.3681 32.5541 28.9682C34.9337 28.804 37.4152 28.7121 39.9967 28.7121C41.2588 28.7121 42.4913 28.7368 43.7057 28.7778C44.8447 30.2122 45.9886 31.704 47.1292 33.2926C49.0592 35.9841 50.7611 38.6198 52.2874 41.1866C50.9892 43.2184 49.5729 45.2928 48.0138 47.3918C46.8207 49.0002 45.6226 50.5133 44.4262 51.9592C42.9803 52.0166 41.5099 52.0544 39.9967 52.0544C37.576 52.0544 35.2521 51.9657 33.007 51.8213C31.6235 50.1194 30.2367 48.3273 28.8516 46.3973C27.3237 44.2671 25.8975 42.1155 24.5764 39.9738ZM50.6528 49.3465C51.8492 47.7283 52.9996 46.0608 54.1058 44.3754C55.2858 46.5384 56.3181 48.6227 57.1961 50.6134C54.6178 51.0713 51.8311 51.434 48.8688 51.6802C49.4662 50.9138 50.0636 50.1424 50.6528 49.3465ZM49.7961 31.379C49.2151 30.5732 48.6309 29.7871 48.0466 29.0108C51.713 29.2849 55.1233 29.7362 58.2103 30.3303C57.1042 32.7789 55.7847 35.3572 54.2092 38.0421C52.8224 35.779 51.3453 33.5404 49.7961 31.379ZM40.9552 25.438C40.6368 25.4347 40.3167 25.4298 39.9984 25.4298C38.5049 25.4298 37.0032 25.4643 35.5049 25.5283C36.4584 24.4697 37.402 23.4867 38.3408 22.5381C39.204 23.4588 40.0755 24.4221 40.9552 25.438ZM16.5921 10.0078C17.1386 9.61724 17.8542 9.41866 18.7174 9.41866C22.4609 9.41866 28.8614 13.0916 36.0448 20.1847C34.3249 21.9276 32.6049 23.8018 30.9063 25.8122C26.4703 26.188 22.154 26.8347 18.2185 27.7439C17.4898 25.9878 16.8531 24.2744 16.3492 22.6366C14.3848 16.2442 14.4767 11.5243 16.5921 10.0078ZM3.27904 40.3808C3.27904 37.2445 8.15985 33.9081 16.3361 31.6055C17.5932 34.3298 19.0736 37.1313 20.7475 39.9672C18.9226 43.0001 17.2945 46.0576 15.9324 49.0428C7.99737 46.7501 3.27904 43.4678 3.27904 40.3808ZM19.1589 70.5863C18.1545 70.5863 17.3241 70.35 16.6955 69.8839C14.0303 67.908 14.3979 61.4763 17.8345 52.9357C22.0063 53.9253 26.6196 54.6113 31.3593 54.9904C33.0201 56.9828 34.6908 58.8537 36.3599 60.5753C29.2816 67.1694 22.9451 70.5863 19.1589 70.5863ZM35.9135 55.2579C37.2757 55.3088 38.6395 55.3367 39.9967 55.3367C40.5088 55.3367 41.0192 55.3318 41.5312 55.3236C40.5875 56.3673 39.6521 57.3405 38.7232 58.2809C37.7959 57.3291 36.8588 56.3181 35.9135 55.2579ZM59.3903 69.6853C56.6003 71.6892 49.4432 68.5316 41.0635 60.5917C42.726 58.9095 44.3835 57.1009 46.028 55.1644C50.3065 54.9248 54.5358 54.4406 58.4778 53.7087C61.596 61.8636 61.8898 67.8899 59.3903 69.6853ZM60.48 49.9537C59.2492 47.1063 57.759 44.1686 56.0981 41.2358C58.1693 37.8337 60.0156 34.384 61.4992 31.0475C70.9703 33.3386 76.716 36.9787 76.716 40.3824C76.7177 43.9076 70.5535 47.6807 60.48 49.9537Z" fill="#DDEDD9"/>
<path d="M39.9984 46.7534C43.517 46.7534 46.3694 43.9011 46.3694 40.3825C46.3694 36.8639 43.517 34.0115 39.9984 34.0115C36.4798 34.0115 33.6274 36.8639 33.6274 40.3825C33.6274 43.9011 36.4798 46.7534 39.9984 46.7534Z" fill="#DDEDD9"/>
</svg>
