<svg width="44" height="42" viewBox="0 0 44 42" fill="none" xmlns="http://www.w3.org/2000/svg">
<path d="M38.15 16.15C38.15 13.0833 36.5667 11.55 33.4 11.55H29V27.3H33.4C36.5667 27.3 38.15 25.7833 38.15 22.75V16.15ZM25.45 8.4H33.6C36.2333 8.4 38.2333 9.08333 39.6 10.45C41 11.8167 41.7 13.65 41.7 15.95V22.9C41.7 25.2333 41.0167 27.0833 39.65 28.45C38.2833 29.7833 36.2667 30.45 33.6 30.45H29V42H25.45V8.4Z" fill="url(#paint0_linear)" fill-opacity="0.7"/>
<path d="M17.5 34L15.45 24.6H6.45L4.4 34H0.85L8.45 0.399997H13.45L21.05 34H17.5ZM7.1 21.5H14.75L10.9 3.85L7.1 21.5Z" fill="url(#paint1_linear)" fill-opacity="0.7"/>
<defs>
<linearGradient id="paint0_linear" x1="22" y1="25.2948" x2="26.2832" y2="36.4891" gradientUnits="userSpaceOnUse">
<stop stop-color="#DDEDD9"/>
<stop offset="0.682292" stop-color="#DDEDD9" stop-opacity="0.54"/>
</linearGradient>
<linearGradient id="paint1_linear" x1="2.50982e-07" y1="17.2948" x2="4.14194" y2="28.612" gradientUnits="userSpaceOnUse">
<stop stop-color="#DDEDD9"/>
<stop offset="0.765625" stop-color="#DDEDD9"/>
</linearGradient>
</defs>
</svg>
